{
  "source": "C:\\Users\\Peter\\Desktop\\stuff\\MIUN\\quantitative_research\\video_compression\\videos\\BVI-HD\\BVI-HD_CDVL_videos\\ORIG\\Typing_1920x1080_60fps.mp4",
  "output": "C:\\Users\\Peter\\Desktop\\stuff\\MIUN\\quantitative_research\\video_compression\\compressed_videos\\BVI-HD\\h264\\1\\Typing_1920x1080_60fps_h264.mp4",
  "codec": "h264",
  "ok": "Input #0, mov,mp4,m4a,3gp,3g2,mj2, from 'C:\\Users\\Peter\\Desktop\\stuff\\MIUN\\quantitative_research\\video_compression\\videos\\BVI-HD\\BVI-HD_CDVL_videos\\ORIG\\Typing_1920x1080_60fps.mp4':\n  Metadata:\n    major_brand     : isom\n    minor_version   : 512\n    compatible_brands: isomiso2avc1mp41\n    encoder         : Lavf54.28.101\n  Duration: 00:00:05.00, start: 0.000000, bitrate: 203453 kb/s\n  Stream #0:0[0x1](und): Video: h264 (High 4:4:4 Predictive) (avc1 / 0x31637661), yuv420p(progressive), 1920x1080, 203448 kb/s, 60 fps, 60 tbr, 60 tbn (default)\n    Metadata:\n      handler_name    : VideoHandler\n      vendor_id       : [0][0][0][0]\n[out#0/mp4 @ 000001a72f3d1500] Codec AVOption b:a (set bitrate (in bits/s)) has not been used for any stream. The most likely reason is either wrong type (e.g. a video option with no video streams) or that it is a private option of some decoder which was not actually used for any stream.\nStream mapping:\n  Stream #0:0 -> #0:0 (h264 (native) -> h264 (libx264))\nPress [q] to stop, [?] for help\n[libx264 @ 000001a72f9a0940] using cpu capabilities: MMX2 SSE2Fast SSSE3 SSE4.2 AVX FMA3 BMI2 AVX2\n[libx264 @ 000001a72f9a0940] profile High, level 5.0, 4:2:0, 8-bit\n[libx264 @ 000001a72f9a0940] 264 - core 165 r3222 b35605a - H.264/MPEG-4 AVC codec - Copyleft 2003-2025 - http://www.videolan.org/x264.html - options: cabac=1 ref=5 deblock=1:0:0 analyse=0x3:0x113 me=hex subme=8 psy=1 psy_rd=1.00:0.00 mixed_ref=1 me_range=16 chroma_me=1 trellis=2 8x8dct=1 cqm=0 deadzone=21,11 fast_pskip=1 chroma_qp_offset=-2 threads=18 lookahead_threads=3 sliced_threads=0 nr=0 decimate=1 interlaced=0 bluray_compat=0 constrained_intra=0 bframes=3 b_pyramid=2 b_adapt=1 b_bias=0 direct=3 weightb=1 open_gop=0 weightp=2 keyint=250 keyint_min=25 scenecut=40 intra_refresh=0 rc_lookahead=50 rc=cbr mbtree=1 bitrate=1000 ratetol=1.0 qcomp=0.60 qpmin=0 qpmax=69 qpstep=4 vbv_maxrate=1000 vbv_bufsize=1000 nal_hrd=none filler=0 ip_ratio=1.40 aq=1:1.00\nOutput #0, mp4, to 'C:\\Users\\Peter\\Desktop\\stuff\\MIUN\\quantitative_research\\video_compression\\compressed_videos\\BVI-HD\\h264\\1\\Typing_1920x1080_60fps_h264.mp4':\n  Metadata:\n    major_brand     : isom\n    minor_version   : 512\n    compatible_brands: isomiso2avc1mp41\n    encoder         : Lavf62.3.100\n  Stream #0:0(und): Video: h264 (avc1 / 0x31637661), yuv420p(tv, progressive), 1920x1080, q=2-31, 1000 kb/s, 60 fps, 15360 tbn (default)\n    Metadata:\n      encoder         : Lavc62.11.100 libx264\n      handler_name    : VideoHandler\n      vendor_id       : [0][0][0][0]\n    Side data:\n      cpb: bitrate max/min/avg: 1000000/0/1000000 buffer size: 1000000 vbv_delay: N/A\nframe=    0 fps=0.0 q=0.0 size=       0KiB time=N/A bitrate=N/A speed=N/A elapsed=0:00:00.52    \nframe=    0 fps=0.0 q=0.0 size=       0KiB time=N/A bitrate=N/A speed=N/A elapsed=0:00:01.16    \nframe=    4 fps=2.3 q=48.0 size=       0KiB time=00:00:00.03 bitrate=  11.5kbits/s speed=0.0195x elapsed=0:00:01.70    \nframe=   36 fps= 16 q=43.0 size=       0KiB time=00:00:00.50 bitrate=   0.8kbits/s speed=0.224x elapsed=0:00:02.23    \nframe=   72 fps= 25 q=42.0 size=       0KiB time=00:00:01.10 bitrate=   0.3kbits/s speed=0.388x elapsed=0:00:02.83    \nframe=  108 fps= 31 q=42.0 size=       0KiB time=00:00:01.70 bitrate=   0.2kbits/s speed=0.49x elapsed=0:00:03.46    \nframe=  140 fps= 35 q=41.0 size=       0KiB time=00:00:02.30 bitrate=   0.2kbits/s speed=0.568x elapsed=0:00:04.04    \nframe=  180 fps= 39 q=41.0 size=       0KiB time=00:00:02.83 bitrate=   0.1kbits/s speed=0.615x elapsed=0:00:04.60    \nframe=  212 fps= 41 q=42.0 size=     256KiB time=00:00:03.43 bitrate= 610.9kbits/s speed=0.659x elapsed=0:00:05.21    \nframe=  246 fps= 43 q=43.0 size=     256KiB time=00:00:03.85 bitrate= 544.8kbits/s speed=0.666x elapsed=0:00:05.78    \n[mp4 @ 000001a72f3d1640] Starting second pass: moving the moov atom to the beginning of the file\n[out#0/mp4 @ 000001a72f3d1500] video:444KiB audio:0KiB subtitle:0KiB other streams:0KiB global headers:0KiB muxing overhead: 0.978873%\nframe=  300 fps= 48 q=-1.0 Lsize=     449KiB time=00:00:04.96 bitrate= 740.2kbits/s speed=0.799x elapsed=0:00:06.21    \n[libx264 @ 000001a72f9a0940] frame I:2     Avg QP:37.31  size: 25152\n[libx264 @ 000001a72f9a0940] frame P:76    Avg QP:36.01  size:  2842\n[libx264 @ 000001a72f9a0940] frame B:222   Avg QP:43.12  size:   847\n[libx264 @ 000001a72f9a0940] consecutive B-frames:  1.3%  0.0%  0.0% 98.7%\n[libx264 @ 000001a72f9a0940] mb I  I16..4: 42.9% 55.4%  1.7%\n[libx264 @ 000001a72f9a0940] mb P  I16..4:  4.3%  1.9%  0.0%  P16..4: 10.5%  0.3%  0.8%  0.0%  0.0%    skip:82.2%\n[libx264 @ 000001a72f9a0940] mb B  I16..4:  0.1%  0.1%  0.0%  B16..8:  7.7%  0.2%  0.0%  direct: 0.1%  skip:91.9%  L0:45.1% L1:54.1% BI: 0.8%\n[libx264 @ 000001a72f9a0940] 8x8 transform intra:38.2% inter:95.7%\n[libx264 @ 000001a72f9a0940] direct mvs  spatial:95.5% temporal:4.5%\n[libx264 @ 000001a72f9a0940] coded y,uvDC,uvAC intra: 9.7% 25.5% 2.3% inter: 0.3% 0.7% 0.0%\n[libx264 @ 000001a72f9a0940] i16 v,h,dc,p: 18% 38%  8% 37%\n[libx264 @ 000001a72f9a0940] i8 v,h,dc,ddl,ddr,vr,hd,vl,hu:  6% 12% 39%  4% 11%  6%  9%  4%  9%\n[libx264 @ 000001a72f9a0940] i4 v,h,dc,ddl,ddr,vr,hd,vl,hu:  6% 17% 10%  6% 23% 12% 12%  4% 10%\n[libx264 @ 000001a72f9a0940] i8c dc,h,v,p: 80% 16%  3%  1%\n[libx264 @ 000001a72f9a0940] Weighted P-Frames: Y:0.0% UV:0.0%\n[libx264 @ 000001a72f9a0940] ref P L0: 41.1%  8.8% 18.9% 12.4% 18.8%\n[libx264 @ 000001a72f9a0940] ref B L0: 73.9% 12.9%  9.5%  3.7%\n[libx264 @ 000001a72f9a0940] ref B L1: 92.1%  7.9%\n[libx264 @ 000001a72f9a0940] kb/s:726.96\n",
  "seconds": 6.629170656204224,
  "probe_out": {}
}